<svg id="svg" version="1.1" width="2400" height="401" xmlns="http://www.w3.org/2000/svg" xmlns:xlink="http://www.w3.org/1999/xlink" style="display: block;"><g id="svgg"><path id="path0" d="M154.717 6.833 C 154.717 7.337,154.748 7.544,154.786 7.292 C 154.824 7.040,154.824 6.627,154.786 6.375 C 154.748 6.123,154.717 6.329,154.717 6.833 M78.905 20.250 C 78.905 22.450,78.929 23.327,78.958 22.199 C 78.987 21.071,78.987 19.271,78.958 18.199 C 78.929 17.127,78.905 18.050,78.905 20.250 M200.108 20.349 C 199.944 20.541,199.839 20.728,199.876 20.765 C 199.912 20.801,200.105 20.644,200.303 20.415 C 200.502 20.187,200.607 20.000,200.536 20.000 C 200.465 20.000,200.273 20.157,200.108 20.349 M103.212 31.333 C 103.212 31.746,103.245 31.915,103.284 31.708 C 103.324 31.502,103.324 31.165,103.284 30.958 C 103.245 30.752,103.212 30.921,103.212 31.333 M272.278 31.583 C 272.405 32.407,272.501 32.547,272.497 31.903 C 272.496 31.635,272.423 31.304,272.336 31.167 C 272.227 30.996,272.209 31.129,272.278 31.583 M18.338 31.493 C 17.941 31.744,18.212 31.797,18.667 31.558 C 18.896 31.437,18.971 31.338,18.833 31.338 C 18.696 31.338,18.473 31.408,18.338 31.493 M53.858 31.709 C 53.710 31.990,53.672 34.874,53.706 43.250 L 53.752 54.417 53.793 43.158 C 53.823 34.759,53.883 31.850,54.031 31.703 C 54.139 31.594,54.189 31.467,54.142 31.420 C 54.095 31.372,53.967 31.502,53.858 31.709 M232.233 35.083 C 232.234 36.458,232.259 36.999,232.291 36.284 C 232.322 35.569,232.322 34.444,232.290 33.784 C 232.259 33.124,232.233 33.708,232.233 35.083 M206.205 38.333 C 206.205 38.654,206.240 38.785,206.282 38.625 C 206.323 38.465,206.323 38.202,206.282 38.042 C 206.240 37.881,206.205 38.012,206.205 38.333 M272.379 38.833 C 272.379 39.246,272.411 39.415,272.451 39.208 C 272.491 39.002,272.491 38.665,272.451 38.458 C 272.411 38.252,272.379 38.421,272.379 38.833 M103.214 39.250 C 103.216 39.708,103.248 39.876,103.286 39.623 C 103.325 39.369,103.324 38.994,103.284 38.789 C 103.244 38.584,103.213 38.792,103.214 39.250 M374.542 39.115 C 374.702 39.157,374.965 39.157,375.125 39.115 C 375.285 39.073,375.154 39.039,374.833 39.039 C 374.512 39.039,374.381 39.073,374.542 39.115 M296.686 41.688 C 296.675 41.837,296.779 42.053,296.917 42.167 C 297.089 42.310,297.167 42.316,297.167 42.187 C 297.167 42.084,297.097 42.000,297.012 42.000 C 296.927 42.000,296.823 41.869,296.782 41.708 C 296.717 41.462,296.702 41.459,296.686 41.688 M220.765 43.917 C 220.615 44.146,220.557 44.333,220.636 44.333 C 220.715 44.333,220.865 44.146,220.970 43.917 C 221.074 43.688,221.132 43.500,221.099 43.500 C 221.066 43.500,220.915 43.688,220.765 43.917 " stroke="none" fill="#000000" fill-rule="evenodd"></path><path id="path1" d="M146.982 1.272 C 146.878 1.397,146.572 1.500,146.303 1.500 C 146.019 1.500,145.857 1.570,145.917 1.667 C 145.973 1.758,145.860 1.833,145.666 1.833 C 145.276 1.833,143.500 3.528,143.500 3.900 C 143.500 4.024,143.395 4.213,143.266 4.320 C 143.138 4.427,142.990 4.830,142.938 5.215 C 142.886 5.601,142.796 6.242,142.736 6.639 C 142.670 7.089,142.699 7.432,142.814 7.548 C 142.917 7.650,143.000 7.937,143.000 8.186 C 143.000 8.634,143.465 9.698,143.708 9.806 C 143.777 9.836,143.833 9.929,143.833 10.012 C 143.833 10.279,144.388 10.820,144.555 10.716 C 144.645 10.660,144.673 10.688,144.618 10.778 C 144.474 11.011,145.238 11.598,146.312 12.081 C 146.970 12.376,150.833 12.450,150.833 12.167 C 150.833 12.075,150.978 12.000,151.155 12.000 C 151.332 12.000,151.589 11.887,151.726 11.750 C 151.864 11.612,152.022 11.500,152.078 11.500 C 152.355 11.500,153.500 10.312,153.500 10.025 C 153.500 9.939,153.612 9.826,153.750 9.773 C 153.887 9.720,154.000 9.529,154.000 9.348 C 154.000 9.168,154.075 8.973,154.167 8.917 C 154.258 8.860,154.333 8.598,154.333 8.333 C 154.333 8.069,154.408 7.807,154.500 7.750 C 154.749 7.596,154.712 6.167,154.458 6.164 C 154.305 6.162,154.310 6.124,154.476 6.018 C 154.634 5.918,154.646 5.840,154.518 5.761 C 154.416 5.698,154.333 5.351,154.333 4.990 C 154.333 4.629,154.266 4.333,154.185 4.333 C 154.103 4.333,153.989 4.146,153.932 3.917 C 153.874 3.688,153.753 3.500,153.663 3.500 C 153.574 3.500,153.500 3.420,153.500 3.321 C 153.500 3.139,153.094 2.667,152.937 2.667 C 152.890 2.667,152.648 2.479,152.401 2.250 C 152.154 2.021,151.850 1.833,151.726 1.833 C 151.602 1.833,151.500 1.758,151.500 1.667 C 151.500 1.575,151.275 1.500,151.000 1.500 C 150.725 1.500,150.500 1.421,150.500 1.323 C 150.500 1.226,150.425 1.193,150.333 1.250 C 150.242 1.307,150.167 1.270,150.167 1.168 C 150.167 0.884,147.224 0.980,146.982 1.272 M84.667 11.579 L 84.667 15.992 81.875 16.038 L 79.083 16.083 79.050 20.162 C 79.025 23.184,79.068 24.274,79.217 24.368 C 79.327 24.438,80.598 24.496,82.042 24.497 L 84.667 24.500 84.667 36.073 C 84.667 43.609,84.725 47.683,84.833 47.750 C 84.925 47.807,85.000 48.048,85.000 48.287 C 85.000 48.783,85.496 50.000,85.699 50.000 C 85.773 50.000,85.833 50.175,85.833 50.389 C 85.833 50.630,85.988 50.860,86.242 50.995 C 86.466 51.116,86.672 51.369,86.700 51.558 C 86.729 51.760,86.922 51.951,87.167 52.018 C 87.396 52.082,87.513 52.141,87.427 52.150 C 87.223 52.172,87.932 52.833,88.160 52.833 C 88.255 52.833,88.333 52.908,88.333 53.000 C 88.333 53.092,88.440 53.167,88.571 53.167 C 88.702 53.167,88.910 53.267,89.033 53.390 C 89.259 53.617,89.788 53.782,90.826 53.951 C 91.142 54.002,91.504 54.147,91.629 54.272 C 91.774 54.417,92.243 54.500,92.919 54.500 C 93.503 54.500,94.024 54.571,94.078 54.658 C 94.208 54.868,100.291 54.869,100.421 54.659 C 100.475 54.572,100.928 54.500,101.427 54.500 C 101.925 54.500,102.336 54.425,102.340 54.333 C 102.343 54.242,102.346 52.404,102.346 50.250 C 102.346 48.096,102.343 46.259,102.340 46.168 C 102.336 46.067,101.422 46.006,99.974 46.011 C 98.403 46.016,97.576 45.956,97.499 45.831 C 97.435 45.729,97.270 45.628,97.132 45.608 C 96.685 45.542,96.182 44.826,95.916 43.875 C 95.858 43.669,95.741 43.500,95.655 43.500 C 95.561 43.500,95.500 39.765,95.500 34.000 L 95.500 24.500 98.896 24.500 C 103.167 24.500,102.750 24.958,102.750 20.266 C 102.750 15.475,103.211 16.000,99.005 16.000 L 95.500 16.000 95.500 11.583 L 95.500 7.167 90.083 7.167 L 84.667 7.167 84.667 11.579 M19.430 15.428 C 19.279 15.578,18.846 15.667,18.262 15.667 C 17.751 15.667,17.333 15.742,17.333 15.833 C 17.333 15.925,17.117 16.000,16.852 16.000 C 16.588 16.000,16.157 16.112,15.894 16.249 C 15.631 16.386,15.285 16.498,15.125 16.499 C 14.965 16.500,14.833 16.575,14.833 16.667 C 14.833 16.758,14.688 16.833,14.510 16.833 C 14.332 16.833,14.140 16.908,14.083 17.000 C 14.027 17.092,13.832 17.167,13.652 17.167 C 13.471 17.167,13.280 17.279,13.227 17.417 C 13.174 17.554,13.033 17.667,12.912 17.667 C 12.628 17.667,11.669 18.213,11.668 18.375 C 11.667 18.444,11.586 18.500,11.488 18.500 C 11.257 18.500,10.833 18.924,10.833 19.155 C 10.833 19.253,10.749 19.333,10.646 19.333 C 10.342 19.333,8.333 21.528,8.333 21.861 C 8.333 22.029,8.258 22.167,8.167 22.167 C 8.075 22.167,8.000 22.319,8.000 22.505 C 8.000 22.691,7.887 22.887,7.750 22.940 C 7.613 22.992,7.500 23.173,7.500 23.341 C 7.500 23.509,7.425 23.693,7.333 23.750 C 7.242 23.807,7.167 24.102,7.167 24.406 C 7.167 24.710,7.054 25.053,6.917 25.167 C 6.743 25.311,6.667 25.694,6.667 26.427 C 6.667 27.006,6.588 27.529,6.492 27.588 C 5.725 28.062,6.761 28.175,11.774 28.162 L 16.833 28.149 16.833 27.632 C 16.833 27.337,17.013 26.880,17.250 26.569 C 17.479 26.268,17.667 25.979,17.667 25.926 C 17.667 25.758,18.613 24.833,18.785 24.833 C 18.877 24.833,19.134 24.665,19.357 24.458 C 19.579 24.252,19.982 24.071,20.251 24.057 C 20.520 24.043,20.767 23.949,20.800 23.849 C 20.840 23.729,21.655 23.667,23.190 23.667 C 24.701 23.667,25.483 23.725,25.417 23.833 C 25.323 23.985,25.416 24.015,26.153 24.068 C 26.283 24.077,26.421 24.178,26.459 24.292 C 26.497 24.407,26.676 24.500,26.857 24.500 C 27.038 24.500,27.140 24.575,27.083 24.667 C 27.027 24.758,27.079 24.833,27.201 24.833 C 27.322 24.833,27.570 25.036,27.752 25.284 C 27.934 25.533,28.196 25.858,28.333 26.007 C 28.918 26.641,29.000 27.010,29.000 28.998 L 29.000 31.000 27.375 31.020 C 26.481 31.031,25.647 31.025,25.522 31.008 C 25.396 30.990,25.096 31.055,24.855 31.151 C 24.614 31.247,23.108 31.353,21.509 31.387 C 19.509 31.430,18.580 31.509,18.536 31.641 C 18.496 31.762,18.039 31.833,17.308 31.833 C 16.668 31.833,16.004 31.909,15.832 32.001 C 15.660 32.093,15.207 32.181,14.827 32.195 C 14.426 32.211,14.099 32.316,14.050 32.445 C 14.002 32.568,13.718 32.667,13.409 32.667 C 13.103 32.667,12.807 32.742,12.750 32.833 C 12.693 32.925,12.426 33.000,12.157 33.000 C 11.832 33.000,11.667 33.084,11.667 33.250 C 11.667 33.406,11.509 33.500,11.250 33.500 C 11.021 33.500,10.833 33.575,10.833 33.667 C 10.833 33.758,10.646 33.833,10.417 33.833 C 10.188 33.833,10.000 33.903,10.000 33.989 C 10.000 34.074,9.845 34.193,9.657 34.253 C 9.183 34.403,6.333 37.228,6.333 37.547 C 6.333 37.689,6.250 37.833,6.149 37.867 C 5.951 37.933,5.507 39.073,5.503 39.528 C 5.501 39.681,5.424 39.831,5.332 39.861 C 5.240 39.892,5.127 40.285,5.082 40.734 C 5.036 41.183,4.933 41.633,4.853 41.733 C 4.642 41.997,4.620 44.660,4.827 44.909 C 4.922 45.024,5.039 45.507,5.086 45.982 C 5.134 46.458,5.238 46.975,5.319 47.132 C 5.400 47.288,5.603 47.754,5.770 48.167 C 5.937 48.579,6.118 48.954,6.171 49.000 C 6.224 49.046,6.398 49.365,6.558 49.708 C 6.718 50.052,6.920 50.333,7.008 50.333 C 7.095 50.333,7.167 50.414,7.167 50.512 C 7.167 50.743,7.591 51.167,7.821 51.167 C 7.920 51.167,8.000 51.247,8.000 51.346 C 8.000 51.588,9.360 52.823,9.632 52.829 C 9.751 52.831,10.050 53.021,10.297 53.250 C 10.544 53.479,10.879 53.667,11.040 53.667 C 11.201 53.667,11.333 53.742,11.333 53.833 C 11.333 53.925,11.489 54.000,11.679 54.000 C 11.868 54.000,12.136 54.112,12.274 54.250 C 12.411 54.387,12.702 54.500,12.919 54.500 C 13.136 54.500,13.360 54.575,13.417 54.667 C 13.473 54.758,13.921 54.833,14.413 54.833 C 14.979 54.833,15.331 54.910,15.375 55.042 C 15.485 55.374,19.775 55.410,20.274 55.083 C 20.483 54.946,20.953 54.833,21.318 54.833 C 21.682 54.833,22.027 54.758,22.083 54.667 C 22.140 54.575,22.398 54.500,22.656 54.500 C 22.914 54.500,23.219 54.387,23.333 54.250 C 23.447 54.112,23.670 54.000,23.828 54.000 C 24.208 54.000,24.998 53.599,25.454 53.174 C 25.655 52.987,25.937 52.833,26.080 52.833 C 26.441 52.833,29.294 49.916,29.383 49.457 C 29.422 49.251,29.465 50.332,29.477 51.857 C 29.497 54.219,29.539 54.646,29.764 54.732 C 30.232 54.912,39.696 54.849,39.583 54.667 C 39.527 54.575,39.598 54.500,39.742 54.500 C 40.129 54.500,40.133 25.207,39.746 25.059 C 39.597 25.002,39.500 24.745,39.500 24.409 C 39.500 24.103,39.425 23.807,39.333 23.750 C 39.242 23.693,39.167 23.469,39.167 23.252 C 39.167 23.035,39.054 22.745,38.917 22.607 C 38.779 22.470,38.667 22.239,38.667 22.095 C 38.667 21.951,38.592 21.833,38.500 21.833 C 38.408 21.833,38.333 21.721,38.333 21.583 C 38.333 21.446,38.263 21.333,38.178 21.333 C 38.092 21.333,37.976 21.187,37.919 21.009 C 37.755 20.492,35.701 18.500,35.332 18.500 C 35.149 18.500,35.000 18.415,35.000 18.310 C 35.000 18.060,34.488 17.679,34.143 17.672 C 33.992 17.669,33.826 17.554,33.773 17.417 C 33.720 17.279,33.525 17.167,33.339 17.167 C 33.152 17.167,33.000 17.092,33.000 17.000 C 33.000 16.908,32.819 16.833,32.597 16.833 C 32.376 16.833,32.167 16.751,32.133 16.650 C 32.100 16.549,31.812 16.444,31.494 16.416 C 31.177 16.388,30.935 16.282,30.958 16.182 C 30.982 16.078,30.756 16.000,30.427 16.000 C 30.111 16.000,29.807 15.925,29.750 15.833 C 29.693 15.742,29.209 15.667,28.675 15.667 C 27.956 15.667,27.677 15.600,27.605 15.412 C 27.464 15.044,19.798 15.059,19.430 15.428 M62.478 15.369 C 62.311 15.488,62.339 15.502,62.583 15.423 C 62.800 15.352,62.858 15.370,62.750 15.475 C 62.658 15.563,62.208 15.677,61.750 15.728 C 60.053 15.916,59.500 16.040,59.500 16.232 C 59.500 16.340,59.332 16.442,59.127 16.457 C 58.923 16.473,58.729 16.564,58.697 16.659 C 58.665 16.755,58.474 16.833,58.273 16.833 C 58.072 16.833,57.802 16.979,57.673 17.158 C 57.545 17.336,57.378 17.444,57.303 17.398 C 57.228 17.352,57.167 17.393,57.167 17.490 C 57.167 17.587,57.080 17.667,56.975 17.667 C 56.724 17.667,54.365 20.137,54.240 20.530 C 54.188 20.697,54.074 20.833,53.989 20.833 C 53.903 20.833,53.833 21.021,53.833 21.250 C 53.833 21.506,53.739 21.667,53.587 21.667 C 53.382 21.667,53.334 21.204,53.296 18.875 L 53.250 16.083 48.042 16.039 L 42.833 15.995 42.833 35.176 C 42.833 51.668,42.867 54.391,43.074 54.598 C 43.275 54.799,44.155 54.831,48.449 54.794 L 53.583 54.750 53.626 43.195 C 53.663 33.209,53.703 31.607,53.918 31.392 C 54.063 31.247,54.167 30.838,54.167 30.415 C 54.167 30.014,54.242 29.640,54.333 29.583 C 54.425 29.527,54.500 29.257,54.500 28.985 C 54.500 28.699,54.605 28.449,54.749 28.394 C 54.886 28.341,54.960 28.237,54.914 28.163 C 54.868 28.088,54.943 27.914,55.082 27.775 C 55.220 27.637,55.333 27.439,55.333 27.335 C 55.333 27.232,55.397 27.186,55.475 27.234 C 55.553 27.283,55.715 27.137,55.836 26.911 C 55.957 26.685,56.103 26.500,56.160 26.500 C 56.217 26.500,56.542 26.238,56.882 25.917 C 57.222 25.596,57.643 25.333,57.816 25.333 C 57.989 25.333,58.174 25.221,58.227 25.083 C 58.291 24.917,58.552 24.833,59.005 24.833 C 59.417 24.833,59.646 24.767,59.583 24.667 C 59.517 24.560,60.085 24.500,61.167 24.500 C 62.248 24.500,62.816 24.560,62.750 24.667 C 62.688 24.767,62.915 24.833,63.323 24.833 C 63.696 24.833,64.000 24.901,64.000 24.983 C 64.000 25.180,65.271 25.840,65.400 25.711 C 65.455 25.656,65.500 25.736,65.500 25.889 C 65.500 26.042,65.567 26.167,65.649 26.167 C 65.731 26.167,66.049 26.560,66.355 27.042 C 66.660 27.523,66.968 27.942,67.039 27.972 C 67.109 28.003,67.167 28.269,67.167 28.564 C 67.167 28.859,67.243 29.177,67.337 29.270 C 67.450 29.384,67.506 33.614,67.502 41.867 L 67.497 54.293 67.909 54.563 C 68.398 54.883,78.333 54.982,78.333 54.667 C 78.333 54.575,78.427 54.519,78.542 54.542 C 78.811 54.596,78.936 27.536,78.668 27.268 C 78.575 27.175,78.500 26.682,78.500 26.170 C 78.500 25.659,78.403 25.093,78.284 24.912 C 78.166 24.731,78.046 24.321,78.019 24.000 C 77.992 23.679,77.901 23.392,77.818 23.361 C 77.735 23.331,77.667 23.159,77.667 22.980 C 77.667 22.701,77.276 21.927,77.004 21.667 C 76.956 21.621,76.891 21.433,76.860 21.250 C 76.828 21.067,76.735 20.892,76.651 20.861 C 76.568 20.831,76.500 20.697,76.500 20.564 C 76.500 20.431,76.387 20.280,76.250 20.227 C 76.112 20.174,76.000 20.053,76.000 19.957 C 76.000 19.719,73.514 17.360,73.137 17.240 C 72.970 17.188,72.833 17.074,72.833 16.989 C 72.833 16.903,72.746 16.833,72.639 16.833 C 72.328 16.833,71.167 16.282,71.167 16.135 C 71.167 16.061,70.904 16.000,70.583 16.000 C 70.262 16.000,70.000 15.925,70.000 15.833 C 70.000 15.742,69.620 15.667,69.155 15.667 C 68.635 15.667,68.216 15.573,68.066 15.423 C 67.778 15.135,62.872 15.088,62.478 15.369 M118.394 15.417 C 118.325 15.596,118.045 15.667,117.409 15.667 C 116.920 15.667,116.473 15.742,116.417 15.833 C 116.360 15.925,116.102 16.000,115.843 16.000 C 115.583 16.000,115.157 16.112,114.894 16.249 C 114.631 16.386,114.285 16.498,114.125 16.499 C 113.965 16.500,113.833 16.575,113.833 16.667 C 113.833 16.758,113.678 16.833,113.488 16.833 C 113.298 16.833,113.030 16.947,112.891 17.085 C 112.753 17.223,112.570 17.293,112.485 17.241 C 112.400 17.188,112.286 17.263,112.231 17.406 C 112.176 17.549,112.024 17.667,111.893 17.667 C 111.543 17.667,110.821 18.179,110.928 18.352 C 110.978 18.433,110.860 18.500,110.665 18.500 C 110.287 18.500,109.833 18.858,109.833 19.155 C 109.833 19.253,109.759 19.333,109.669 19.333 C 109.482 19.333,108.916 19.769,108.518 20.220 C 108.371 20.387,107.891 20.912,107.452 21.386 C 107.014 21.861,106.529 22.512,106.375 22.833 C 106.222 23.154,106.018 23.508,105.923 23.619 C 105.828 23.731,105.656 23.934,105.542 24.071 C 105.427 24.207,105.333 24.464,105.333 24.642 C 105.333 24.819,105.221 25.008,105.083 25.060 C 104.946 25.113,104.833 25.304,104.833 25.485 C 104.833 25.666,104.758 25.860,104.667 25.917 C 104.575 25.973,104.500 26.205,104.500 26.432 C 104.500 26.659,104.381 27.027,104.236 27.249 C 104.090 27.470,104.013 27.719,104.064 27.801 C 104.114 27.884,104.048 28.093,103.917 28.267 C 103.785 28.441,103.675 28.940,103.672 29.375 C 103.669 29.810,103.592 30.167,103.500 30.167 C 103.400 30.167,103.333 30.830,103.333 31.823 C 103.333 32.837,103.263 33.524,103.152 33.592 C 103.052 33.654,103.008 33.846,103.053 34.019 C 103.098 34.192,103.086 34.333,103.026 34.333 C 102.890 34.333,102.906 36.128,103.043 36.266 C 103.099 36.321,103.106 36.464,103.060 36.583 C 103.015 36.702,103.057 36.849,103.155 36.910 C 103.261 36.975,103.333 37.657,103.333 38.593 C 103.333 39.531,103.401 40.167,103.500 40.167 C 103.592 40.167,103.667 40.608,103.667 41.157 C 103.667 41.701,103.742 42.193,103.833 42.250 C 103.925 42.307,104.000 42.531,104.000 42.748 C 104.000 42.965,104.112 43.255,104.250 43.393 C 104.388 43.530,104.500 43.873,104.500 44.155 C 104.500 44.436,104.575 44.667,104.667 44.667 C 104.758 44.667,104.833 44.854,104.833 45.083 C 104.833 45.343,104.928 45.500,105.083 45.500 C 105.221 45.500,105.333 45.646,105.333 45.823 C 105.333 46.001,105.408 46.193,105.500 46.250 C 105.592 46.307,105.667 46.501,105.667 46.682 C 105.667 46.863,105.779 47.054,105.917 47.106 C 106.054 47.159,106.167 47.344,106.167 47.518 C 106.167 47.691,106.242 47.833,106.333 47.833 C 106.425 47.833,106.500 47.940,106.500 48.069 C 106.500 48.199,106.559 48.331,106.631 48.361 C 106.703 48.392,107.022 48.751,107.340 49.160 C 108.039 50.060,109.167 51.240,109.167 51.071 C 109.167 51.004,109.307 51.110,109.478 51.308 C 109.649 51.505,109.840 51.667,109.902 51.667 C 109.964 51.667,110.217 51.854,110.464 52.083 C 110.711 52.313,110.994 52.500,111.092 52.500 C 111.190 52.500,111.426 52.645,111.616 52.822 C 111.805 52.998,112.101 53.167,112.272 53.197 C 112.443 53.226,112.682 53.344,112.804 53.458 C 112.925 53.573,113.131 53.667,113.262 53.667 C 113.393 53.667,113.500 53.742,113.500 53.833 C 113.500 53.925,113.730 54.000,114.012 54.000 C 114.293 54.000,114.636 54.112,114.774 54.250 C 114.911 54.387,115.243 54.500,115.512 54.500 C 115.780 54.500,116.000 54.575,116.000 54.667 C 116.000 54.758,116.343 54.833,116.762 54.833 C 117.190 54.833,117.625 54.935,117.755 55.065 C 117.925 55.234,118.537 55.304,120.035 55.322 C 121.162 55.337,122.108 55.419,122.138 55.506 C 122.173 55.605,122.303 55.605,122.487 55.507 C 122.648 55.421,123.617 55.337,124.640 55.322 C 125.674 55.307,126.500 55.225,126.500 55.137 C 126.500 55.051,126.570 55.023,126.655 55.076 C 126.740 55.129,126.857 55.096,126.915 55.003 C 126.973 54.910,127.390 54.833,127.843 54.833 C 128.296 54.833,128.667 54.768,128.667 54.688 C 128.667 54.608,128.967 54.495,129.333 54.436 C 129.700 54.377,130.000 54.255,130.000 54.165 C 130.000 54.074,130.183 54.000,130.407 54.000 C 130.631 54.000,130.860 53.925,130.917 53.833 C 130.973 53.742,131.131 53.667,131.268 53.667 C 131.404 53.667,131.912 53.413,132.396 53.104 C 132.880 52.794,133.439 52.489,133.638 52.426 C 133.837 52.363,134.000 52.241,134.000 52.155 C 134.000 52.070,134.080 52.000,134.179 52.000 C 134.409 52.000,134.833 51.576,134.833 51.345 C 134.833 51.247,134.946 51.167,135.083 51.167 C 135.221 51.167,135.333 51.097,135.333 51.011 C 135.333 50.926,135.484 50.808,135.669 50.749 C 135.854 50.691,135.962 50.573,135.909 50.488 C 135.857 50.403,135.914 50.333,136.036 50.333 C 136.158 50.333,136.399 50.071,136.572 49.750 C 136.744 49.429,136.954 49.167,137.038 49.167 C 137.248 49.167,137.667 48.730,137.667 48.512 C 137.667 48.414,137.740 48.333,137.830 48.333 C 137.920 48.333,138.041 48.146,138.098 47.917 C 138.156 47.688,138.270 47.500,138.351 47.500 C 138.433 47.500,138.500 47.387,138.500 47.250 C 138.500 47.112,138.563 47.000,138.640 47.000 C 138.801 47.000,139.193 46.239,139.282 45.754 C 139.316 45.572,139.416 45.351,139.505 45.262 C 139.594 45.173,139.667 44.928,139.667 44.717 C 139.667 44.500,139.768 44.333,139.898 44.333 C 140.119 44.333,140.198 44.061,140.440 42.465 C 140.492 42.124,140.639 41.759,140.767 41.653 C 140.908 41.536,141.000 41.141,141.000 40.656 C 141.000 40.214,141.075 39.807,141.167 39.750 C 141.382 39.617,141.392 31.421,141.178 31.020 C 141.092 30.860,140.995 30.321,140.963 29.823 C 140.930 29.324,140.827 28.931,140.734 28.948 C 140.640 28.965,140.546 28.665,140.524 28.281 C 140.501 27.897,140.412 27.558,140.325 27.528 C 140.238 27.497,140.167 27.224,140.167 26.921 C 140.167 26.584,140.069 26.332,139.917 26.273 C 139.779 26.220,139.667 25.987,139.667 25.755 C 139.667 25.523,139.592 25.333,139.500 25.333 C 139.408 25.333,139.333 25.146,139.333 24.917 C 139.333 24.688,139.266 24.500,139.185 24.500 C 139.103 24.500,138.989 24.313,138.932 24.083 C 138.874 23.854,138.753 23.667,138.663 23.667 C 138.574 23.667,138.500 23.517,138.500 23.333 C 138.500 23.150,138.425 23.000,138.333 23.000 C 138.242 23.000,138.167 22.887,138.167 22.750 C 138.167 22.613,138.060 22.500,137.930 22.500 C 137.799 22.500,137.606 22.238,137.500 21.917 C 137.394 21.596,137.201 21.333,137.070 21.333 C 136.940 21.333,136.833 21.259,136.833 21.169 C 136.833 20.998,135.241 19.333,135.078 19.333 C 135.026 19.333,134.810 19.146,134.598 18.917 C 134.386 18.688,134.130 18.500,134.031 18.500 C 133.932 18.500,133.648 18.313,133.401 18.083 C 133.154 17.854,132.821 17.667,132.663 17.667 C 132.504 17.667,132.286 17.561,132.179 17.431 C 131.923 17.123,129.859 16.298,129.656 16.423 C 129.570 16.476,129.500 16.403,129.500 16.260 C 129.500 16.075,129.335 16.000,128.927 16.000 C 128.611 16.000,128.307 15.925,128.250 15.833 C 128.193 15.742,127.771 15.667,127.312 15.667 C 126.791 15.667,126.382 15.572,126.226 15.417 C 126.019 15.209,125.338 15.167,122.233 15.167 C 119.059 15.167,118.475 15.205,118.394 15.417 M177.258 15.432 C 177.125 15.565,176.695 15.667,176.262 15.667 C 175.843 15.667,175.500 15.742,175.500 15.833 C 175.500 15.925,175.237 16.000,174.917 16.000 C 174.596 16.000,174.333 16.074,174.333 16.163 C 174.333 16.253,174.146 16.374,173.917 16.432 C 173.688 16.489,173.500 16.603,173.500 16.685 C 173.500 16.766,173.313 16.833,173.083 16.833 C 172.854 16.833,172.667 16.903,172.667 16.989 C 172.667 17.074,172.519 17.191,172.339 17.248 C 172.159 17.305,171.668 17.686,171.249 18.093 C 170.830 18.500,170.415 18.833,170.327 18.833 C 170.239 18.833,170.167 18.911,170.167 19.006 C 170.167 19.100,169.938 19.401,169.658 19.675 C 169.374 19.953,169.202 20.255,169.267 20.362 C 169.340 20.478,169.311 20.506,169.192 20.433 C 169.087 20.367,169.000 20.398,169.000 20.502 C 169.000 20.606,168.887 20.803,168.750 20.940 C 168.612 21.078,168.500 21.340,168.500 21.522 C 168.500 21.704,168.425 21.807,168.333 21.750 C 168.233 21.688,168.167 20.526,168.167 18.823 L 168.167 16.000 162.917 16.000 L 157.667 16.000 157.667 35.230 C 157.667 51.309,157.704 54.490,157.895 54.649 C 158.057 54.783,159.611 54.825,163.270 54.794 L 168.417 54.750 168.458 43.333 C 168.481 37.054,168.549 31.804,168.610 31.667 C 168.670 31.529,168.708 31.360,168.693 31.292 C 168.679 31.223,168.742 31.167,168.833 31.167 C 168.925 31.167,169.000 30.894,169.000 30.561 C 169.000 29.824,169.327 28.663,169.619 28.363 C 169.737 28.242,169.833 28.074,169.833 27.990 C 169.833 27.498,172.126 25.333,172.647 25.333 C 172.822 25.333,173.008 25.221,173.060 25.083 C 173.124 24.918,173.385 24.833,173.828 24.833 C 174.198 24.833,174.500 24.758,174.500 24.667 C 174.500 24.568,175.108 24.500,175.990 24.500 C 176.810 24.500,177.527 24.575,177.583 24.667 C 177.640 24.758,177.902 24.833,178.167 24.833 C 178.431 24.833,178.691 24.904,178.744 24.990 C 178.797 25.076,179.177 25.315,179.587 25.520 C 179.998 25.725,180.333 25.954,180.333 26.030 C 180.333 26.105,180.450 26.167,180.593 26.167 C 180.736 26.167,180.812 26.234,180.761 26.316 C 180.710 26.398,180.781 26.508,180.918 26.561 C 181.055 26.613,181.167 26.809,181.167 26.995 C 181.167 27.181,181.234 27.333,181.315 27.333 C 181.397 27.333,181.512 27.524,181.570 27.757 C 181.629 27.990,181.741 28.140,181.820 28.091 C 182.150 27.887,182.222 29.861,182.317 41.833 L 182.417 54.417 182.794 54.470 C 183.002 54.500,183.129 54.593,183.076 54.679 C 182.877 55.001,192.952 54.871,193.331 54.546 C 193.706 54.225,193.877 27.610,193.506 27.240 C 193.418 27.151,193.332 26.611,193.315 26.039 C 193.296 25.404,193.196 24.927,193.058 24.813 C 192.935 24.710,192.833 24.335,192.833 23.980 C 192.833 23.624,192.758 23.333,192.667 23.333 C 192.575 23.333,192.500 23.143,192.500 22.911 C 192.500 22.679,192.387 22.446,192.250 22.394 C 192.112 22.341,192.000 22.155,192.000 21.980 C 192.000 21.565,191.736 21.092,191.042 20.263 C 190.927 20.126,190.833 19.968,190.833 19.912 C 190.833 19.751,190.374 19.333,190.198 19.333 C 190.110 19.333,189.998 19.178,189.948 18.988 C 189.899 18.797,189.703 18.601,189.512 18.552 C 189.322 18.502,189.167 18.390,189.167 18.302 C 189.167 18.087,188.733 17.667,188.512 17.667 C 188.414 17.667,188.333 17.607,188.333 17.534 C 188.333 17.309,185.585 16.000,185.112 16.000 C 184.867 16.000,184.667 15.925,184.667 15.833 C 184.667 15.742,184.324 15.667,183.905 15.667 C 183.441 15.667,183.042 15.566,182.886 15.410 C 182.529 15.053,177.619 15.072,177.258 15.432 M210.043 15.411 C 209.974 15.532,209.542 15.674,209.083 15.726 C 207.454 15.911,206.833 16.037,206.833 16.184 C 206.833 16.266,206.751 16.333,206.650 16.333 C 206.549 16.333,206.212 16.446,205.900 16.583 C 205.588 16.721,205.069 16.950,204.746 17.093 C 204.423 17.236,204.203 17.423,204.256 17.510 C 204.309 17.596,204.199 17.667,204.012 17.667 C 203.824 17.667,203.538 17.780,203.377 17.918 C 203.215 18.056,203.021 18.164,202.946 18.157 C 202.870 18.150,202.683 18.281,202.529 18.448 C 202.376 18.615,201.887 19.043,201.443 19.399 C 200.528 20.134,199.833 20.847,199.833 21.052 C 199.833 21.250,199.390 21.667,199.179 21.667 C 199.080 21.667,199.000 21.779,199.000 21.917 C 199.000 22.054,198.925 22.167,198.833 22.167 C 198.742 22.167,198.667 22.275,198.667 22.408 C 198.667 22.541,198.479 22.852,198.250 23.099 C 198.021 23.346,197.833 23.725,197.833 23.941 C 197.833 24.157,197.759 24.333,197.669 24.333 C 197.477 24.333,197.000 25.405,197.000 25.836 C 197.000 25.998,196.887 26.174,196.750 26.227 C 196.612 26.280,196.500 26.471,196.500 26.652 C 196.500 26.832,196.425 27.027,196.333 27.083 C 196.242 27.140,196.167 27.482,196.167 27.843 C 196.167 28.204,196.100 28.500,196.019 28.500 C 195.938 28.500,195.820 28.911,195.758 29.414 C 195.695 29.917,195.574 30.371,195.488 30.424 C 195.403 30.477,195.333 31.261,195.333 32.167 C 195.333 33.073,195.267 33.855,195.185 33.905 C 195.104 33.955,195.034 34.636,195.030 35.418 C 195.026 36.255,195.087 36.800,195.178 36.743 C 195.271 36.686,195.333 37.422,195.333 38.564 C 195.333 39.624,195.406 40.525,195.495 40.580 C 195.584 40.635,195.707 41.054,195.767 41.511 C 195.828 41.967,195.942 42.381,196.022 42.430 C 196.102 42.479,196.167 42.773,196.167 43.083 C 196.167 43.393,196.242 43.693,196.333 43.750 C 196.425 43.807,196.500 43.993,196.500 44.165 C 196.500 44.336,196.612 44.589,196.750 44.726 C 196.887 44.864,197.000 45.083,197.000 45.212 C 197.000 45.556,197.498 46.500,197.679 46.500 C 197.764 46.500,197.833 46.604,197.833 46.731 C 197.833 47.085,198.247 47.802,198.655 48.156 C 198.857 48.332,199.017 48.537,199.010 48.612 C 198.990 48.859,199.911 49.992,200.135 49.996 C 200.255 49.998,200.307 50.075,200.250 50.167 C 200.193 50.258,200.264 50.333,200.407 50.333 C 200.550 50.333,200.667 50.414,200.667 50.512 C 200.667 50.709,201.078 51.167,201.256 51.167 C 201.318 51.167,201.517 51.355,201.698 51.585 C 201.879 51.815,202.089 51.964,202.166 51.917 C 202.243 51.870,202.531 52.057,202.807 52.332 C 203.082 52.608,203.426 52.833,203.571 52.833 C 203.715 52.833,203.833 52.908,203.833 53.000 C 203.833 53.092,203.940 53.167,204.071 53.167 C 204.202 53.167,204.409 53.260,204.530 53.375 C 204.651 53.490,204.900 53.609,205.083 53.640 C 205.267 53.672,205.442 53.765,205.472 53.849 C 205.503 53.932,205.714 54.000,205.942 54.000 C 206.171 54.000,206.470 54.112,206.607 54.250 C 206.745 54.387,207.110 54.500,207.419 54.500 C 207.728 54.500,208.027 54.575,208.083 54.667 C 208.140 54.758,208.463 54.836,208.802 54.839 C 209.140 54.842,209.550 54.945,209.714 55.069 C 209.912 55.220,210.607 55.308,211.797 55.334 C 212.780 55.355,213.771 55.378,214.000 55.385 C 216.133 55.449,218.503 55.307,218.707 55.103 C 218.834 54.976,219.270 54.833,219.677 54.786 C 220.785 54.657,222.000 54.326,222.000 54.153 C 222.000 54.069,222.188 54.000,222.417 54.000 C 222.646 54.000,222.833 53.933,222.833 53.852 C 222.833 53.770,223.083 53.657,223.387 53.600 C 223.692 53.543,224.102 53.347,224.297 53.165 C 224.493 52.982,224.806 52.833,224.993 52.833 C 225.180 52.833,225.333 52.770,225.333 52.693 C 225.333 52.616,225.596 52.411,225.917 52.238 C 226.237 52.066,226.500 51.866,226.500 51.795 C 226.500 51.725,226.612 51.667,226.750 51.667 C 226.887 51.667,227.000 51.554,227.000 51.417 C 227.000 51.279,227.094 51.164,227.208 51.161 C 227.475 51.154,228.167 50.581,228.167 50.367 C 228.167 50.278,228.354 50.082,228.583 49.932 C 228.813 49.782,229.000 49.566,229.000 49.452 C 229.000 49.339,229.188 49.105,229.417 48.933 C 229.646 48.761,229.833 48.480,229.833 48.310 C 229.833 48.139,229.908 48.000,230.000 48.000 C 230.092 48.000,230.167 47.846,230.167 47.657 C 230.167 47.468,230.236 47.357,230.321 47.409 C 230.406 47.462,230.529 47.335,230.594 47.127 C 230.659 46.920,230.774 46.710,230.850 46.660 C 230.927 46.611,231.007 46.335,231.029 46.047 C 231.051 45.759,231.129 45.560,231.201 45.605 C 231.333 45.686,231.357 45.595,231.396 44.869 C 231.407 44.660,231.497 44.435,231.596 44.369 C 231.695 44.304,231.794 43.819,231.817 43.292 L 231.858 42.333 226.762 42.333 C 223.960 42.333,221.676 42.390,221.688 42.458 C 221.726 42.673,221.267 43.667,221.130 43.667 C 221.059 43.667,221.000 43.782,221.000 43.922 C 221.000 44.062,220.887 44.220,220.750 44.273 C 220.612 44.326,220.500 44.456,220.500 44.562 C 220.500 44.909,218.278 46.333,217.736 46.333 C 217.601 46.333,217.446 46.446,217.394 46.583 C 217.323 46.767,217.034 46.833,216.306 46.833 C 215.687 46.833,215.352 46.896,215.417 47.000 C 215.481 47.105,215.110 47.167,214.417 47.167 C 213.724 47.167,213.352 47.105,213.417 47.000 C 213.481 46.896,213.147 46.833,212.528 46.833 C 211.800 46.833,211.510 46.767,211.440 46.583 C 211.387 46.446,211.150 46.333,210.912 46.333 C 210.667 46.333,210.525 46.261,210.583 46.167 C 210.640 46.075,210.529 46.000,210.336 46.000 C 210.143 46.000,209.783 45.813,209.536 45.583 C 209.289 45.354,209.024 45.167,208.948 45.167 C 208.796 45.167,208.333 44.743,208.333 44.604 C 208.333 44.556,208.146 44.315,207.917 44.068 C 207.688 43.820,207.500 43.516,207.500 43.392 C 207.500 43.268,207.425 43.167,207.333 43.167 C 207.242 43.167,207.167 43.060,207.167 42.929 C 207.167 42.798,207.061 42.585,206.932 42.456 C 206.803 42.327,206.672 42.003,206.641 41.736 C 206.610 41.469,206.539 41.212,206.483 41.167 C 206.427 41.121,206.328 40.352,206.264 39.458 L 206.147 37.833 219.157 37.833 L 232.167 37.833 232.167 34.250 C 232.167 31.972,232.106 30.667,232.000 30.667 C 231.908 30.667,231.833 30.287,231.833 29.822 C 231.833 29.358,231.748 28.818,231.644 28.623 C 231.539 28.428,231.435 28.052,231.413 27.787 C 231.390 27.522,231.288 27.221,231.186 27.119 C 231.084 27.017,231.000 26.801,231.000 26.639 C 231.000 26.299,230.477 25.110,230.292 25.028 C 230.223 24.997,230.167 24.791,230.167 24.569 C 230.167 24.348,230.092 24.167,230.000 24.167 C 229.908 24.167,229.833 24.025,229.833 23.851 C 229.833 23.678,229.721 23.492,229.583 23.440 C 229.446 23.387,229.333 23.209,229.333 23.045 C 229.333 22.881,229.072 22.447,228.753 22.082 C 228.434 21.716,228.172 21.359,228.170 21.289 C 228.166 21.124,226.200 19.167,226.039 19.166 C 225.972 19.165,225.646 18.916,225.315 18.612 C 224.984 18.308,224.478 17.962,224.190 17.843 C 223.902 17.724,223.667 17.575,223.667 17.512 C 223.667 17.383,222.485 16.833,222.208 16.833 C 222.109 16.833,222.002 16.757,221.971 16.663 C 221.940 16.570,221.671 16.476,221.374 16.455 C 221.074 16.434,220.834 16.324,220.834 16.208 C 220.833 16.081,220.605 16.000,220.250 16.000 C 219.929 16.000,219.667 15.939,219.667 15.864 C 219.667 15.790,219.313 15.711,218.881 15.688 C 218.448 15.666,218.010 15.578,217.907 15.492 C 217.804 15.406,217.670 15.386,217.610 15.446 C 217.549 15.506,217.500 15.466,217.500 15.356 C 217.500 15.051,210.219 15.105,210.043 15.411 M266.424 15.433 C 266.314 15.544,265.779 15.671,265.236 15.716 C 263.629 15.849,261.004 16.837,260.617 17.454 C 260.543 17.571,260.350 17.667,260.187 17.667 C 260.023 17.667,259.789 17.854,259.667 18.083 C 259.544 18.313,259.376 18.500,259.293 18.500 C 259.081 18.500,258.667 18.939,258.667 19.165 C 258.667 19.268,258.600 19.312,258.518 19.261 C 258.437 19.211,258.237 19.375,258.075 19.626 C 257.912 19.878,257.604 20.249,257.390 20.450 C 257.175 20.652,257.000 20.901,257.000 21.004 C 257.000 21.107,256.889 21.301,256.754 21.436 C 256.537 21.653,256.503 21.351,256.462 18.883 L 256.417 16.083 251.042 16.039 L 245.667 15.995 245.667 41.414 L 245.667 66.833 251.083 66.833 C 254.063 66.833,256.517 66.815,256.538 66.792 C 256.559 66.769,256.615 62.775,256.663 57.917 C 256.730 51.064,256.793 49.177,256.942 49.500 C 257.048 49.729,257.291 50.027,257.484 50.162 C 257.676 50.297,257.833 50.469,257.833 50.544 C 257.833 50.907,259.144 52.199,259.377 52.065 C 259.491 52.000,259.533 52.002,259.472 52.071 C 259.346 52.211,259.912 52.833,260.167 52.833 C 260.258 52.833,260.333 52.908,260.333 53.000 C 260.333 53.092,260.437 53.167,260.563 53.167 C 260.689 53.167,260.886 53.279,261.000 53.417 C 261.114 53.554,261.348 53.667,261.520 53.667 C 261.693 53.667,261.833 53.742,261.833 53.833 C 261.833 53.925,262.013 54.000,262.232 54.000 C 262.452 54.000,262.674 54.112,262.727 54.250 C 262.787 54.407,263.042 54.500,263.411 54.500 C 263.735 54.500,264.000 54.575,264.000 54.667 C 264.000 54.758,264.369 54.833,264.819 54.833 C 265.327 54.833,265.665 54.913,265.708 55.042 C 265.816 55.366,270.582 55.394,270.904 55.072 C 271.046 54.930,271.472 54.833,271.955 54.833 C 272.401 54.833,272.838 54.764,272.925 54.679 C 273.012 54.595,273.308 54.501,273.583 54.471 C 273.858 54.441,274.070 54.338,274.053 54.243 C 274.037 54.147,274.262 54.051,274.553 54.029 C 274.845 54.007,275.108 53.917,275.139 53.828 C 275.169 53.739,275.306 53.667,275.442 53.667 C 275.578 53.667,275.935 53.479,276.235 53.250 C 276.536 53.021,276.833 52.833,276.895 52.833 C 277.326 52.833,280.212 49.805,280.746 48.792 C 280.927 48.448,281.134 48.167,281.205 48.167 C 281.275 48.167,281.333 48.017,281.333 47.833 C 281.333 47.650,281.408 47.500,281.500 47.500 C 281.592 47.500,281.667 47.348,281.667 47.161 C 281.667 46.975,281.779 46.780,281.917 46.727 C 282.054 46.674,282.167 46.452,282.167 46.232 C 282.167 46.013,282.226 45.833,282.298 45.833 C 282.370 45.833,282.448 45.591,282.470 45.295 C 282.493 44.999,282.621 44.695,282.756 44.620 C 282.890 44.545,283.000 44.267,283.000 44.002 C 283.000 43.737,283.075 43.473,283.167 43.417 C 283.258 43.360,283.333 42.987,283.333 42.587 C 283.333 42.188,283.416 41.834,283.517 41.800 C 283.620 41.766,283.731 41.192,283.771 40.494 C 283.850 39.091,283.885 38.821,284.022 38.583 C 284.075 38.492,284.134 37.929,284.154 37.333 C 284.174 36.737,284.264 36.175,284.355 36.083 C 284.464 35.973,284.481 36.019,284.404 36.220 C 284.341 36.386,284.372 36.686,284.473 36.886 C 284.574 37.086,284.694 37.887,284.739 38.667 C 284.888 41.205,285.024 42.186,285.241 42.269 C 285.358 42.315,285.418 42.518,285.378 42.732 C 285.337 42.946,285.421 43.230,285.569 43.378 C 285.714 43.524,285.833 43.873,285.833 44.155 C 285.833 44.436,285.908 44.667,286.000 44.667 C 286.092 44.667,286.167 44.819,286.167 45.005 C 286.167 45.191,286.279 45.387,286.417 45.440 C 286.554 45.492,286.667 45.673,286.667 45.841 C 286.667 46.009,286.742 46.193,286.833 46.250 C 286.925 46.307,287.000 46.501,287.000 46.682 C 287.000 46.863,287.112 47.054,287.250 47.106 C 287.387 47.159,287.500 47.338,287.500 47.504 C 287.500 47.670,287.561 47.831,287.635 47.861 C 287.710 47.892,288.098 48.362,288.497 48.906 C 289.336 50.049,290.055 50.832,290.268 50.836 C 290.350 50.837,290.829 51.211,291.333 51.667 C 291.837 52.123,292.330 52.497,292.427 52.498 C 292.524 52.499,292.749 52.635,292.927 52.800 C 293.105 52.965,293.606 53.246,294.041 53.425 C 294.476 53.604,294.832 53.806,294.833 53.875 C 294.833 53.944,295.064 54.000,295.345 54.000 C 295.627 54.000,295.970 54.112,296.107 54.250 C 296.245 54.388,296.577 54.500,296.845 54.500 C 297.114 54.500,297.333 54.575,297.333 54.667 C 297.333 54.758,297.652 54.836,298.042 54.839 C 298.431 54.842,298.884 54.946,299.049 55.070 C 299.258 55.229,299.959 55.305,301.382 55.323 C 302.501 55.337,303.441 55.419,303.472 55.506 C 303.506 55.605,303.636 55.605,303.818 55.508 C 303.977 55.423,304.928 55.339,305.929 55.322 C 307.782 55.290,308.223 55.227,308.090 55.011 C 308.049 54.944,308.441 54.873,308.962 54.851 C 309.483 54.830,309.949 54.753,309.996 54.681 C 310.044 54.608,310.365 54.496,310.708 54.433 C 311.052 54.370,311.333 54.263,311.333 54.196 C 311.333 54.128,311.690 53.969,312.125 53.842 C 312.560 53.715,313.196 53.436,313.538 53.222 C 313.880 53.008,314.237 52.833,314.330 52.833 C 314.424 52.833,314.500 52.766,314.500 52.685 C 314.500 52.603,314.688 52.489,314.917 52.432 C 315.146 52.374,315.333 52.253,315.333 52.163 C 315.333 52.074,315.450 52.000,315.593 52.000 C 315.736 52.000,315.807 51.925,315.750 51.833 C 315.693 51.742,315.764 51.667,315.907 51.667 C 316.050 51.667,316.167 51.554,316.167 51.417 C 316.167 51.279,316.279 51.167,316.417 51.167 C 316.554 51.167,316.667 51.097,316.667 51.011 C 316.667 50.926,316.818 50.808,317.002 50.749 C 317.187 50.691,317.295 50.573,317.243 50.488 C 317.190 50.403,317.259 50.333,317.396 50.333 C 317.532 50.333,317.692 50.183,317.750 50.000 C 317.808 49.817,317.926 49.667,318.011 49.667 C 318.097 49.667,318.167 49.554,318.167 49.417 C 318.167 49.279,318.247 49.167,318.345 49.167 C 318.614 49.167,319.000 48.726,319.000 48.419 C 319.000 48.269,319.073 48.192,319.162 48.247 C 319.251 48.302,319.371 48.156,319.430 47.923 C 319.488 47.691,319.603 47.500,319.685 47.500 C 319.766 47.500,319.833 47.387,319.833 47.250 C 319.833 47.112,319.908 47.000,320.000 47.000 C 320.092 47.000,320.167 46.858,320.167 46.684 C 320.167 46.511,320.279 46.326,320.417 46.273 C 320.554 46.220,320.667 46.022,320.667 45.833 C 320.667 45.643,320.788 45.303,320.936 45.077 C 321.084 44.852,321.140 44.664,321.061 44.661 C 320.982 44.658,321.037 44.565,321.183 44.453 C 321.434 44.262,321.548 43.889,321.780 42.500 C 321.833 42.179,321.980 41.769,322.105 41.588 C 322.231 41.407,322.333 40.953,322.333 40.580 C 322.333 40.206,322.411 39.822,322.506 39.728 C 322.905 39.328,322.487 28.875,322.075 28.947 C 321.979 28.964,321.882 28.710,321.860 28.382 C 321.838 28.054,321.748 27.652,321.660 27.487 C 321.572 27.323,321.500 27.032,321.500 26.841 C 321.500 26.650,321.313 26.196,321.083 25.833 C 320.854 25.470,320.667 25.054,320.667 24.908 C 320.667 24.762,320.553 24.530,320.415 24.391 C 320.277 24.253,320.207 24.070,320.259 23.985 C 320.312 23.900,320.237 23.786,320.094 23.731 C 319.951 23.676,319.833 23.489,319.833 23.316 C 319.833 23.142,319.758 23.000,319.667 23.000 C 319.575 23.000,319.500 22.887,319.500 22.750 C 319.500 22.613,319.403 22.500,319.283 22.500 C 319.164 22.500,318.972 22.238,318.856 21.917 C 318.740 21.596,318.537 21.333,318.406 21.333 C 318.274 21.333,318.167 21.255,318.167 21.159 C 318.167 20.945,316.576 19.333,316.365 19.333 C 316.281 19.333,316.073 19.146,315.900 18.917 C 315.728 18.687,315.463 18.500,315.312 18.500 C 315.160 18.500,314.997 18.400,314.950 18.278 C 314.857 18.034,312.022 16.585,311.292 16.408 C 311.040 16.347,310.833 16.230,310.833 16.149 C 310.833 16.067,310.575 16.000,310.260 16.000 C 309.944 16.000,309.640 15.925,309.583 15.833 C 309.527 15.742,309.104 15.667,308.645 15.667 C 308.125 15.667,307.715 15.572,307.560 15.417 C 307.352 15.209,306.671 15.167,303.566 15.167 C 300.393 15.167,299.808 15.205,299.727 15.417 C 299.658 15.596,299.378 15.667,298.742 15.667 C 298.253 15.667,297.807 15.742,297.750 15.833 C 297.693 15.925,297.435 16.000,297.176 16.000 C 296.917 16.000,296.490 16.112,296.227 16.249 C 295.965 16.386,295.619 16.498,295.458 16.499 C 295.298 16.500,295.167 16.575,295.167 16.667 C 295.167 16.758,295.011 16.833,294.821 16.833 C 294.632 16.833,294.363 16.947,294.225 17.085 C 294.086 17.223,293.904 17.293,293.819 17.241 C 293.734 17.188,293.619 17.263,293.564 17.406 C 293.509 17.549,293.328 17.667,293.161 17.667 C 292.994 17.667,292.710 17.854,292.530 18.083 C 292.350 18.313,292.078 18.500,291.926 18.500 C 291.485 18.500,288.129 21.977,287.665 22.917 C 287.529 23.192,287.323 23.477,287.209 23.550 C 287.094 23.623,287.000 23.792,287.000 23.925 C 287.000 24.058,286.941 24.167,286.869 24.167 C 286.797 24.167,286.725 24.329,286.710 24.527 C 286.696 24.725,286.617 24.931,286.537 24.985 C 286.296 25.147,285.833 26.192,285.833 26.576 C 285.833 26.772,285.756 27.011,285.661 27.106 C 285.566 27.201,285.449 27.497,285.401 27.764 C 285.353 28.031,285.243 28.321,285.157 28.408 C 285.071 28.495,285.000 28.927,285.000 29.367 C 285.000 29.807,284.925 30.167,284.833 30.167 C 284.734 30.167,284.667 30.822,284.667 31.800 C 284.667 32.698,284.599 33.505,284.516 33.592 C 284.433 33.679,284.330 33.900,284.286 34.083 C 284.241 34.267,284.197 33.842,284.186 33.139 C 284.175 32.436,284.096 31.836,284.011 31.806 C 283.925 31.775,283.819 31.123,283.776 30.357 C 283.733 29.591,283.616 28.882,283.515 28.782 C 283.415 28.682,283.333 28.324,283.333 27.986 C 283.333 27.648,283.221 27.157,283.084 26.894 C 282.947 26.631,282.835 26.285,282.834 26.125 C 282.834 25.965,282.758 25.833,282.667 25.833 C 282.575 25.833,282.500 25.608,282.500 25.333 C 282.500 25.058,282.425 24.833,282.333 24.833 C 282.242 24.833,282.167 24.655,282.167 24.437 C 282.167 24.219,282.054 23.947,281.917 23.833 C 281.779 23.719,281.667 23.485,281.667 23.313 C 281.667 23.141,281.600 23.000,281.518 23.000 C 281.436 23.000,281.327 22.830,281.275 22.622 C 281.222 22.414,281.027 22.079,280.840 21.879 C 280.653 21.678,280.500 21.440,280.500 21.349 C 280.500 21.258,280.369 21.107,280.208 21.013 C 280.048 20.920,279.983 20.841,280.064 20.838 C 280.146 20.836,280.014 20.636,279.773 20.394 C 279.531 20.152,279.333 19.890,279.333 19.811 C 279.333 19.731,279.253 19.667,279.155 19.667 C 278.924 19.667,278.500 19.243,278.500 19.012 C 278.500 18.914,278.419 18.833,278.321 18.833 C 278.222 18.833,277.915 18.608,277.640 18.332 C 277.364 18.057,277.070 17.873,276.986 17.925 C 276.902 17.977,276.833 17.940,276.833 17.843 C 276.833 17.746,276.716 17.667,276.573 17.667 C 276.431 17.667,276.359 17.594,276.414 17.505 C 276.469 17.416,276.323 17.295,276.090 17.237 C 275.857 17.178,275.667 17.064,275.667 16.982 C 275.667 16.900,275.479 16.833,275.250 16.833 C 275.021 16.833,274.833 16.766,274.833 16.685 C 274.833 16.603,274.627 16.478,274.375 16.407 C 273.887 16.269,273.884 16.268,273.500 16.134 C 272.460 15.772,271.958 15.667,271.268 15.667 C 270.790 15.667,270.378 15.569,270.229 15.419 C 269.915 15.106,266.740 15.117,266.424 15.433 M374.829 15.421 C 374.696 15.582,374.315 15.667,373.730 15.667 C 373.237 15.667,372.833 15.742,372.833 15.833 C 372.833 15.925,372.586 16.000,372.283 16.000 C 371.981 16.000,371.656 16.078,371.561 16.173 C 371.466 16.268,371.169 16.385,370.902 16.433 C 370.635 16.480,370.392 16.590,370.361 16.676 C 370.331 16.763,370.133 16.833,369.923 16.833 C 369.713 16.833,369.448 16.945,369.335 17.081 C 369.222 17.218,369.071 17.294,369.000 17.250 C 368.929 17.206,368.778 17.282,368.665 17.419 C 368.552 17.555,368.318 17.667,368.146 17.667 C 367.974 17.667,367.833 17.742,367.833 17.833 C 367.833 17.925,367.721 18.000,367.583 18.000 C 367.446 18.000,367.333 18.112,367.333 18.250 C 367.333 18.391,367.184 18.500,366.990 18.500 C 366.801 18.500,366.693 18.575,366.750 18.667 C 366.807 18.758,366.747 18.833,366.617 18.833 C 366.486 18.833,366.239 19.021,366.067 19.250 C 365.895 19.479,365.660 19.667,365.544 19.667 C 365.428 19.667,365.333 19.745,365.333 19.841 C 365.333 19.936,365.146 20.217,364.917 20.464 C 364.688 20.711,364.500 21.008,364.500 21.123 C 364.500 21.239,364.425 21.333,364.333 21.333 C 364.242 21.333,364.167 21.437,364.167 21.563 C 364.167 21.689,364.054 21.886,363.917 22.000 C 363.779 22.114,363.667 22.390,363.667 22.614 C 363.667 22.842,363.594 22.975,363.500 22.917 C 363.403 22.857,363.333 23.019,363.333 23.303 C 363.333 23.572,363.221 23.886,363.083 24.000 C 362.917 24.138,362.833 24.511,362.833 25.114 C 362.833 25.614,362.766 25.978,362.682 25.926 C 362.596 25.873,362.529 26.510,362.528 27.414 C 362.526 28.284,362.594 29.039,362.679 29.091 C 362.764 29.143,362.833 29.514,362.833 29.915 C 362.833 30.340,362.937 30.747,363.083 30.893 C 363.221 31.030,363.333 31.287,363.333 31.462 C 363.333 31.871,363.722 32.651,364.159 33.120 C 364.347 33.321,364.500 33.568,364.500 33.668 C 364.500 33.875,366.499 35.833,366.710 35.833 C 366.786 35.833,367.050 36.021,367.297 36.250 C 367.544 36.479,367.841 36.667,367.957 36.667 C 368.072 36.667,368.167 36.742,368.167 36.833 C 368.167 36.925,368.346 37.000,368.566 37.000 C 368.785 37.000,369.008 37.112,369.060 37.250 C 369.113 37.387,369.304 37.500,369.485 37.500 C 369.666 37.500,369.860 37.575,369.917 37.667 C 369.973 37.758,370.231 37.833,370.489 37.833 C 370.748 37.833,371.039 37.929,371.136 38.046 C 371.233 38.163,371.523 38.276,371.781 38.298 C 372.039 38.319,372.275 38.411,372.306 38.501 C 372.336 38.592,372.730 38.667,373.181 38.667 C 373.631 38.667,374.000 38.742,374.000 38.833 C 374.000 38.925,374.415 39.000,374.922 39.000 C 375.588 39.000,375.870 39.069,375.940 39.250 C 376.007 39.425,376.280 39.500,376.851 39.500 C 377.300 39.500,377.667 39.575,377.667 39.667 C 377.667 39.758,378.042 39.833,378.500 39.833 C 378.975 39.833,379.333 39.909,379.333 40.010 C 379.333 40.107,379.408 40.140,379.500 40.083 C 379.592 40.027,379.667 40.060,379.667 40.157 C 379.667 40.255,380.000 40.333,380.417 40.333 C 380.829 40.333,381.167 40.408,381.167 40.500 C 381.167 40.592,381.460 40.667,381.819 40.667 C 382.178 40.667,382.497 40.723,382.528 40.792 C 382.558 40.860,382.883 41.066,383.250 41.249 C 384.571 41.908,385.167 42.734,385.167 43.908 C 385.167 44.950,384.388 46.135,383.522 46.410 C 383.324 46.473,383.205 46.594,383.257 46.679 C 383.310 46.764,383.130 46.833,382.857 46.833 C 382.584 46.833,382.336 46.906,382.306 46.995 C 382.275 47.084,381.812 47.171,381.277 47.188 C 380.708 47.206,380.209 47.315,380.073 47.451 C 379.793 47.731,378.334 47.696,378.223 47.406 C 378.181 47.296,377.787 47.202,377.326 47.191 C 376.581 47.174,376.254 47.075,375.500 46.636 C 375.363 46.556,375.119 46.446,374.958 46.392 C 374.798 46.339,374.667 46.228,374.667 46.147 C 374.667 46.066,374.586 46.000,374.488 46.000 C 374.257 46.000,373.833 45.576,373.833 45.345 C 373.833 45.247,373.739 45.167,373.624 45.167 C 373.509 45.167,373.316 44.923,373.196 44.625 C 373.076 44.327,372.913 43.961,372.834 43.812 C 372.754 43.663,372.638 43.268,372.576 42.935 L 372.462 42.329 367.106 42.373 L 361.750 42.417 361.700 43.368 C 361.666 44.019,361.732 44.445,361.909 44.715 C 362.051 44.932,362.131 45.147,362.086 45.192 C 361.996 45.282,362.544 46.933,362.723 47.112 C 362.784 47.172,362.833 47.362,362.833 47.533 C 362.833 47.704,362.946 47.887,363.083 47.940 C 363.221 47.992,363.333 48.143,363.333 48.274 C 363.333 48.660,363.854 49.340,364.060 49.222 C 364.164 49.162,364.194 49.175,364.126 49.250 C 364.058 49.325,364.086 49.487,364.189 49.610 C 364.291 49.733,364.327 49.833,364.270 49.833 C 364.030 49.833,366.020 51.647,366.488 51.855 C 366.770 51.979,367.000 52.149,367.000 52.231 C 367.000 52.453,367.541 52.822,367.875 52.828 C 368.035 52.831,368.167 52.908,368.167 53.000 C 368.167 53.092,368.354 53.167,368.583 53.167 C 368.843 53.167,369.000 53.261,369.000 53.417 C 369.000 53.571,369.156 53.667,369.407 53.667 C 369.631 53.667,369.860 53.742,369.917 53.833 C 369.973 53.925,370.232 54.000,370.492 54.000 C 370.758 54.000,371.006 54.109,371.060 54.250 C 371.116 54.395,371.365 54.500,371.652 54.500 C 371.924 54.500,372.193 54.575,372.250 54.667 C 372.307 54.758,372.801 54.833,373.348 54.833 C 374.046 54.833,374.370 54.903,374.433 55.066 C 374.502 55.244,374.991 55.305,376.553 55.328 C 377.670 55.345,378.733 55.363,378.917 55.369 C 381.232 55.440,383.504 55.305,383.726 55.083 C 383.882 54.928,384.291 54.833,384.812 54.833 C 385.271 54.833,385.687 54.768,385.736 54.689 C 385.786 54.609,386.128 54.496,386.496 54.437 C 386.865 54.378,387.167 54.255,387.167 54.165 C 387.167 54.074,387.350 54.000,387.575 54.000 C 387.799 54.000,388.335 53.812,388.766 53.583 C 389.197 53.354,389.651 53.167,389.775 53.167 C 389.899 53.167,390.000 53.110,390.000 53.041 C 390.000 52.971,390.206 52.823,390.458 52.711 C 390.710 52.598,391.120 52.318,391.368 52.087 C 391.616 51.856,391.878 51.665,391.951 51.663 C 392.187 51.658,393.333 50.575,393.333 50.358 C 393.333 50.242,393.408 50.193,393.500 50.250 C 393.592 50.307,393.667 50.236,393.667 50.093 C 393.667 49.950,393.746 49.833,393.843 49.833 C 393.940 49.833,393.982 49.772,393.935 49.697 C 393.889 49.622,393.997 49.455,394.176 49.327 C 394.354 49.198,394.500 48.997,394.500 48.880 C 394.500 48.763,394.575 48.667,394.667 48.667 C 394.758 48.667,394.833 48.569,394.833 48.450 C 394.833 48.331,394.921 48.146,395.028 48.039 C 395.262 47.804,395.661 46.703,395.664 46.280 C 395.666 46.113,395.779 45.864,395.917 45.726 C 396.120 45.523,396.167 44.931,396.167 42.566 C 396.167 40.133,396.126 39.640,395.917 39.560 C 395.762 39.501,395.667 39.248,395.667 38.899 C 395.667 38.588,395.592 38.333,395.500 38.333 C 395.408 38.333,395.333 38.154,395.333 37.934 C 395.333 37.715,395.221 37.492,395.083 37.440 C 394.946 37.387,394.833 37.235,394.833 37.101 C 394.833 36.761,392.987 34.905,392.493 34.748 C 392.268 34.676,392.009 34.522,391.917 34.406 C 391.638 34.051,390.516 33.500,390.073 33.500 C 389.844 33.500,389.613 33.388,389.560 33.250 C 389.508 33.113,389.285 33.000,389.066 33.000 C 388.846 33.000,388.667 32.925,388.667 32.833 C 388.667 32.742,388.413 32.667,388.104 32.667 C 387.794 32.667,387.447 32.554,387.333 32.417 C 387.215 32.274,386.852 32.167,386.489 32.167 C 386.139 32.167,385.807 32.092,385.750 32.000 C 385.693 31.908,385.291 31.833,384.857 31.833 C 384.422 31.833,383.987 31.754,383.890 31.657 C 383.793 31.559,383.309 31.437,382.815 31.385 C 382.321 31.333,381.892 31.225,381.861 31.145 C 381.831 31.065,381.437 31.000,380.986 31.000 C 380.535 31.000,380.167 30.925,380.167 30.833 C 380.167 30.742,379.752 30.667,379.245 30.667 C 378.643 30.667,378.294 30.592,378.240 30.450 C 378.194 30.331,377.878 30.215,377.537 30.192 C 377.196 30.169,376.846 30.079,376.759 29.992 C 376.671 29.905,376.386 29.833,376.123 29.833 C 375.861 29.833,375.688 29.766,375.739 29.684 C 375.790 29.603,375.644 29.489,375.416 29.431 C 375.187 29.374,375.000 29.253,375.000 29.163 C 375.000 29.074,374.897 29.000,374.770 29.000 C 374.644 29.000,374.448 28.888,374.335 28.752 C 374.222 28.615,374.062 28.545,373.981 28.595 C 373.900 28.645,373.833 28.501,373.833 28.274 C 373.833 28.047,373.740 27.830,373.625 27.792 C 373.490 27.747,373.417 27.380,373.417 26.750 C 373.417 26.120,373.490 25.753,373.625 25.708 C 373.740 25.670,373.833 25.490,373.833 25.308 C 373.833 24.786,375.299 23.667,375.983 23.667 C 376.160 23.667,376.332 23.587,376.364 23.491 C 376.444 23.250,380.981 23.248,381.222 23.489 C 381.320 23.587,381.610 23.667,381.867 23.667 C 382.123 23.667,382.333 23.742,382.333 23.833 C 382.333 23.925,382.465 24.001,382.625 24.003 C 382.785 24.004,383.093 24.192,383.309 24.420 C 383.525 24.647,383.769 24.833,383.851 24.833 C 383.933 24.833,384.000 24.946,384.000 25.083 C 384.000 25.221,384.075 25.333,384.167 25.333 C 384.258 25.333,384.333 25.474,384.333 25.646 C 384.333 25.818,384.446 26.053,384.583 26.167 C 384.725 26.285,384.833 26.648,384.833 27.009 C 384.833 28.192,384.761 28.177,390.306 28.127 L 395.250 28.083 395.300 27.027 C 395.329 26.418,395.271 25.876,395.163 25.746 C 395.005 25.555,394.894 25.039,394.798 24.042 C 394.787 23.927,394.715 23.833,394.639 23.833 C 394.563 23.833,394.500 23.689,394.500 23.514 C 394.500 23.152,393.983 22.169,393.792 22.168 C 393.723 22.167,393.667 22.007,393.667 21.811 C 393.667 21.615,393.486 21.288,393.266 21.084 C 393.046 20.880,392.744 20.477,392.595 20.190 C 392.446 19.902,392.285 19.667,392.236 19.667 C 392.187 19.667,392.201 19.753,392.266 19.859 C 392.340 19.978,392.312 20.006,392.192 19.933 C 392.087 19.867,392.000 19.731,392.000 19.630 C 392.000 19.422,391.017 18.500,390.795 18.500 C 390.716 18.500,390.477 18.313,390.265 18.083 C 390.052 17.854,389.718 17.667,389.523 17.667 C 389.327 17.667,389.167 17.595,389.167 17.508 C 389.167 17.362,388.948 17.246,387.391 16.564 C 387.103 16.437,386.751 16.333,386.610 16.333 C 386.468 16.333,386.307 16.258,386.250 16.167 C 386.193 16.075,385.926 16.000,385.657 16.000 C 385.387 16.000,385.167 15.925,385.167 15.833 C 385.167 15.739,384.694 15.667,384.083 15.667 C 383.306 15.667,383.012 15.608,383.042 15.458 C 383.109 15.123,375.107 15.087,374.829 15.421 M143.111 16.111 C 143.050 16.172,143.000 24.793,143.000 35.268 L 143.000 54.314 143.370 54.574 C 143.845 54.906,153.196 54.965,153.909 54.640 L 154.333 54.446 154.333 35.223 L 154.333 16.000 148.778 16.000 C 145.722 16.000,143.172 16.050,143.111 16.111 M324.205 16.112 C 323.941 16.218,323.910 41.925,324.174 42.088 C 324.262 42.142,324.333 42.750,324.333 43.438 C 324.333 44.329,324.405 44.763,324.583 44.940 C 324.721 45.078,324.833 45.481,324.833 45.835 C 324.833 46.190,324.908 46.527,325.000 46.583 C 325.092 46.640,325.167 46.869,325.167 47.093 C 325.167 47.317,325.242 47.500,325.333 47.500 C 325.425 47.500,325.500 47.652,325.500 47.839 C 325.500 48.025,325.612 48.220,325.750 48.273 C 325.887 48.326,326.000 48.548,326.000 48.768 C 326.000 48.987,326.075 49.167,326.167 49.167 C 326.258 49.167,326.333 49.276,326.333 49.410 C 326.333 49.544,326.633 49.959,327.000 50.333 C 327.367 50.707,327.667 51.069,327.667 51.136 C 327.667 51.204,327.817 51.388,328.000 51.545 C 328.183 51.702,328.333 51.788,328.333 51.736 C 328.333 51.685,328.446 51.755,328.583 51.893 C 328.721 52.030,328.833 52.236,328.833 52.349 C 328.833 52.463,328.879 52.510,328.934 52.455 C 328.990 52.399,329.196 52.526,329.392 52.737 C 329.589 52.948,329.919 53.173,330.125 53.238 C 330.331 53.303,330.500 53.426,330.500 53.511 C 330.500 53.597,330.646 53.667,330.823 53.667 C 331.001 53.667,331.193 53.742,331.250 53.833 C 331.307 53.925,331.501 54.000,331.682 54.000 C 331.863 54.000,332.054 54.112,332.106 54.250 C 332.160 54.391,332.409 54.500,332.675 54.500 C 332.934 54.500,333.193 54.575,333.250 54.667 C 333.307 54.758,333.654 54.833,334.022 54.833 C 334.394 54.833,334.801 54.944,334.940 55.083 C 335.303 55.446,340.781 55.450,341.260 55.089 C 341.438 54.954,341.860 54.842,342.198 54.839 C 342.537 54.836,342.860 54.758,342.917 54.667 C 342.973 54.575,343.194 54.500,343.406 54.500 C 343.619 54.500,343.886 54.387,344.000 54.250 C 344.114 54.112,344.330 54.000,344.479 54.000 C 344.628 54.000,344.968 53.812,345.234 53.583 C 345.501 53.354,345.785 53.167,345.866 53.167 C 346.086 53.167,347.833 51.394,347.833 51.171 C 347.833 51.066,347.908 51.027,348.000 51.083 C 348.092 51.140,348.167 51.107,348.167 51.010 C 348.167 50.708,348.228 50.594,348.578 50.250 C 348.764 50.067,348.943 49.767,348.975 49.583 C 349.203 48.278,349.420 49.221,349.463 51.702 C 349.491 53.341,349.580 54.479,349.691 54.613 C 349.990 54.973,359.760 54.932,359.899 54.570 C 359.954 54.425,360.000 45.687,360.000 35.153 L 360.000 16.000 354.583 16.000 L 349.167 16.000 349.167 27.813 C 349.167 38.110,349.135 39.652,348.917 39.833 C 348.774 39.951,348.667 40.315,348.667 40.677 C 348.667 41.027,348.592 41.360,348.500 41.417 C 348.408 41.473,348.333 41.695,348.333 41.909 C 348.333 42.123,348.216 42.343,348.073 42.398 C 347.929 42.453,347.856 42.569,347.910 42.656 C 347.964 42.743,347.631 43.203,347.171 43.679 C 346.710 44.154,346.333 44.608,346.333 44.688 C 346.333 44.768,346.223 44.833,346.088 44.833 C 345.954 44.833,345.597 44.969,345.297 45.134 C 343.860 45.924,340.332 46.404,340.139 45.836 C 340.108 45.746,339.824 45.644,339.508 45.610 C 339.191 45.575,338.904 45.461,338.869 45.357 C 338.834 45.252,338.662 45.167,338.486 45.167 C 338.310 45.167,338.167 45.092,338.167 45.000 C 338.167 44.908,338.086 44.833,337.987 44.833 C 337.766 44.833,336.500 43.574,336.500 43.354 C 336.500 43.266,336.444 43.169,336.375 43.139 C 336.126 43.028,335.667 41.962,335.667 41.496 C 335.667 41.234,335.592 40.973,335.500 40.917 C 335.391 40.850,335.333 36.621,335.331 28.782 C 335.330 22.164,335.284 16.581,335.228 16.375 L 335.128 16.000 329.772 16.013 C 326.827 16.020,324.321 16.065,324.205 16.112 M102.624 21.949 C 102.595 22.940,102.571 22.175,102.571 20.250 C 102.570 18.325,102.595 17.515,102.624 18.449 C 102.654 19.384,102.654 20.959,102.624 21.949 M216.185 23.868 C 216.241 23.956,216.354 24.018,216.435 24.006 C 216.677 23.970,218.000 24.557,218.000 24.701 C 218.000 24.774,218.078 24.833,218.174 24.833 C 218.395 24.833,220.167 26.611,220.167 26.833 C 220.167 26.925,220.242 27.000,220.333 27.000 C 220.425 27.000,220.500 27.141,220.500 27.313 C 220.500 27.485,220.612 27.719,220.748 27.832 C 220.885 27.945,220.953 28.108,220.900 28.193 C 220.848 28.278,220.916 28.518,221.052 28.725 C 221.188 28.932,221.325 29.529,221.358 30.051 L 221.417 31.000 213.829 31.000 L 206.241 31.000 206.305 30.333 C 206.340 29.967,206.435 29.667,206.518 29.667 C 206.600 29.667,206.667 29.410,206.667 29.097 C 206.667 28.784,206.723 28.503,206.792 28.472 C 206.959 28.398,207.500 27.357,207.500 27.109 C 207.500 27.001,207.688 26.772,207.917 26.600 C 208.146 26.427,208.333 26.217,208.333 26.131 C 208.333 26.046,208.446 25.864,208.583 25.726 C 208.721 25.589,208.833 25.523,208.833 25.579 C 208.833 25.636,209.107 25.417,209.442 25.091 C 209.777 24.766,210.182 24.500,210.341 24.500 C 210.501 24.500,210.676 24.383,210.731 24.239 C 210.786 24.096,210.893 24.017,210.969 24.064 C 211.045 24.111,211.310 24.045,211.557 23.916 C 212.288 23.537,215.950 23.499,216.185 23.868 M123.592 23.819 C 123.541 23.902,123.799 24.021,124.166 24.083 C 124.533 24.145,124.833 24.264,124.833 24.348 C 124.833 24.432,125.021 24.500,125.250 24.500 C 125.479 24.500,125.667 24.575,125.667 24.667 C 125.667 24.758,125.776 24.833,125.909 24.833 C 126.229 24.833,128.000 26.568,128.000 26.882 C 128.000 27.016,128.112 27.219,128.250 27.333 C 128.387 27.447,128.500 27.644,128.500 27.770 C 128.500 27.897,128.560 28.000,128.633 28.000 C 128.787 28.000,129.167 28.978,129.167 29.375 C 129.167 29.522,129.272 29.749,129.402 29.878 C 129.531 30.007,129.657 30.406,129.683 30.765 C 129.708 31.123,129.794 31.504,129.873 31.611 C 130.091 31.904,130.064 39.062,129.845 39.135 C 129.747 39.168,129.667 39.494,129.667 39.859 C 129.667 40.228,129.555 40.635,129.417 40.774 C 129.279 40.911,129.167 41.202,129.167 41.419 C 129.167 41.636,129.092 41.860,129.000 41.917 C 128.908 41.973,128.833 42.139,128.833 42.286 C 128.833 42.432,128.646 42.798,128.417 43.098 C 128.188 43.399,128.000 43.696,128.000 43.759 C 128.000 44.012,125.758 46.000,125.472 46.000 C 125.304 46.000,125.167 46.075,125.167 46.167 C 125.167 46.258,124.939 46.333,124.661 46.333 C 124.366 46.333,124.116 46.437,124.060 46.583 C 123.946 46.882,120.736 46.957,120.638 46.663 C 120.606 46.569,120.356 46.452,120.082 46.403 C 119.808 46.354,119.512 46.243,119.425 46.157 C 119.338 46.071,119.140 46.000,118.984 46.000 C 118.829 46.000,118.525 45.814,118.309 45.586 C 118.093 45.359,117.781 45.171,117.615 45.170 C 117.449 45.168,117.360 45.092,117.417 45.000 C 117.473 44.908,117.403 44.833,117.260 44.833 C 117.117 44.833,116.999 44.702,116.999 44.542 C 116.998 44.381,116.735 43.974,116.415 43.636 C 116.095 43.298,115.833 42.876,115.833 42.698 C 115.833 42.520,115.721 42.281,115.583 42.167 C 115.446 42.053,115.333 41.823,115.333 41.656 C 115.333 41.489,115.258 41.307,115.167 41.250 C 115.075 41.193,115.000 40.921,115.000 40.646 C 115.000 40.370,114.931 40.015,114.846 39.857 C 114.761 39.698,114.647 39.088,114.593 38.501 C 114.539 37.913,114.416 37.385,114.321 37.326 C 114.102 37.191,114.143 33.457,114.364 33.317 C 114.451 33.262,114.565 32.641,114.619 31.936 C 114.672 31.232,114.780 30.617,114.858 30.568 C 114.936 30.520,115.000 30.264,115.000 30.000 C 115.000 29.736,115.075 29.473,115.167 29.417 C 115.258 29.360,115.333 29.139,115.333 28.925 C 115.333 28.711,115.457 28.488,115.607 28.431 C 115.758 28.373,115.835 28.279,115.778 28.223 C 115.642 28.087,116.153 27.178,116.625 26.716 C 116.831 26.514,117.000 26.306,117.000 26.252 C 117.000 26.072,117.977 25.199,118.072 25.294 C 118.124 25.346,118.167 25.264,118.167 25.111 C 118.167 24.958,118.265 24.833,118.385 24.833 C 118.506 24.833,118.919 24.681,119.303 24.496 C 119.687 24.310,120.228 24.113,120.504 24.057 C 120.781 24.002,121.047 23.892,121.097 23.812 C 121.146 23.732,121.749 23.667,122.436 23.667 C 123.146 23.667,123.646 23.732,123.592 23.819 M304.926 23.819 C 304.874 23.902,305.132 24.021,305.499 24.083 C 305.866 24.145,306.167 24.264,306.167 24.348 C 306.167 24.432,306.354 24.500,306.583 24.500 C 306.813 24.500,307.000 24.575,307.000 24.667 C 307.000 24.758,307.122 24.833,307.270 24.833 C 307.591 24.833,309.544 26.793,309.422 26.992 C 309.375 27.067,309.449 27.222,309.585 27.335 C 309.722 27.448,309.833 27.644,309.833 27.770 C 309.833 27.897,309.908 28.000,310.000 28.000 C 310.092 28.000,310.167 28.135,310.167 28.300 C 310.167 28.465,310.237 28.671,310.323 28.758 C 310.410 28.845,310.519 29.136,310.567 29.403 C 310.615 29.671,310.725 29.933,310.811 29.986 C 310.897 30.040,310.989 30.383,311.015 30.750 C 311.041 31.117,311.123 31.500,311.198 31.601 C 311.406 31.882,311.382 39.067,311.173 39.137 C 311.078 39.168,311.000 39.494,311.000 39.859 C 311.000 40.228,310.889 40.635,310.750 40.774 C 310.612 40.911,310.500 41.169,310.500 41.347 C 310.500 41.757,309.880 43.087,309.569 43.345 C 309.439 43.453,309.333 43.612,309.333 43.698 C 309.333 44.267,306.629 46.333,305.886 46.333 C 305.668 46.333,305.446 46.446,305.394 46.583 C 305.318 46.781,304.969 46.833,303.720 46.833 C 302.540 46.833,302.080 46.770,301.893 46.583 C 301.755 46.446,301.465 46.333,301.248 46.333 C 301.031 46.333,300.807 46.258,300.750 46.167 C 300.693 46.075,300.536 46.000,300.400 46.000 C 300.263 46.000,299.950 45.813,299.703 45.583 C 299.456 45.354,299.159 45.167,299.043 45.167 C 298.928 45.167,298.833 45.092,298.833 45.000 C 298.833 44.908,298.721 44.833,298.583 44.833 C 298.446 44.833,298.333 44.695,298.333 44.526 C 298.333 44.357,298.172 44.075,297.976 43.901 C 297.779 43.726,297.477 43.283,297.304 42.917 C 297.131 42.550,296.929 42.137,296.854 42.000 C 296.420 41.200,296.333 40.963,296.333 40.575 C 296.333 40.338,296.254 39.997,296.158 39.816 C 296.061 39.636,295.959 39.080,295.931 38.581 C 295.903 38.082,295.790 37.566,295.681 37.434 C 295.432 37.134,295.458 33.468,295.710 33.309 C 295.804 33.249,295.918 32.629,295.963 31.930 C 296.008 31.231,296.109 30.619,296.189 30.570 C 296.268 30.521,296.333 30.264,296.333 30.000 C 296.333 29.736,296.408 29.473,296.500 29.417 C 296.592 29.360,296.667 29.139,296.667 28.925 C 296.667 28.711,296.779 28.492,296.917 28.440 C 297.054 28.387,297.167 28.228,297.167 28.086 C 297.167 27.746,297.494 27.190,297.958 26.741 C 298.165 26.542,298.333 26.328,298.333 26.267 C 298.333 26.076,299.306 25.194,299.405 25.294 C 299.457 25.346,299.500 25.264,299.500 25.111 C 299.500 24.958,299.599 24.833,299.720 24.833 C 300.010 24.833,301.198 24.253,301.104 24.158 C 301.063 24.117,301.297 24.069,301.622 24.052 C 301.947 24.035,302.292 23.941,302.390 23.844 C 302.606 23.627,305.059 23.603,304.926 23.819 M266.833 24.667 C 266.833 24.758,267.100 24.833,267.427 24.833 C 267.753 24.833,267.977 24.903,267.924 24.988 C 267.872 25.073,267.980 25.191,268.164 25.249 C 268.349 25.308,268.500 25.426,268.500 25.511 C 268.500 25.597,268.615 25.667,268.755 25.667 C 269.108 25.667,270.615 27.256,270.954 27.985 C 271.107 28.314,271.282 28.621,271.342 28.667 C 271.522 28.805,271.968 29.880,272.084 30.460 C 272.145 30.759,272.250 30.968,272.320 30.925 C 272.389 30.882,272.463 31.311,272.483 31.877 C 272.503 32.443,272.595 32.997,272.686 33.107 C 273.032 33.523,272.623 39.327,272.233 39.550 C 272.104 39.624,272.000 39.940,272.000 40.258 C 272.000 40.575,271.925 40.833,271.833 40.833 C 271.742 40.833,271.667 41.021,271.667 41.250 C 271.667 41.479,271.603 41.667,271.525 41.667 C 271.448 41.667,271.247 41.971,271.079 42.344 C 270.691 43.203,268.782 45.167,268.335 45.167 C 268.151 45.167,268.000 45.242,268.000 45.333 C 268.000 45.425,267.906 45.500,267.792 45.501 C 267.677 45.502,267.366 45.616,267.099 45.754 C 266.548 46.042,262.948 46.130,262.612 45.865 C 262.504 45.780,262.141 45.621,261.805 45.513 C 261.469 45.405,261.103 45.208,260.993 45.075 C 260.883 44.942,260.652 44.833,260.480 44.833 C 260.307 44.833,260.167 44.756,260.167 44.660 C 260.167 44.565,259.829 44.160,259.417 43.759 C 259.004 43.358,258.667 42.908,258.667 42.760 C 258.667 42.611,258.554 42.446,258.417 42.394 C 258.279 42.341,258.167 42.160,258.167 41.992 C 258.167 41.824,258.092 41.640,258.000 41.583 C 257.908 41.527,257.833 41.335,257.833 41.157 C 257.833 40.979,257.721 40.833,257.583 40.833 C 257.404 40.833,257.333 40.650,257.333 40.181 C 257.333 39.822,257.261 39.503,257.172 39.472 C 257.084 39.442,256.998 38.952,256.981 38.383 C 256.960 37.654,256.879 37.323,256.708 37.257 C 256.575 37.206,256.507 37.056,256.558 36.923 C 256.609 36.791,256.663 35.929,256.679 35.008 C 256.695 34.087,256.761 33.333,256.825 33.333 C 256.890 33.333,256.960 32.902,256.981 32.375 C 257.002 31.848,257.090 31.345,257.176 31.258 C 257.263 31.171,257.334 30.759,257.336 30.342 C 257.337 29.863,257.390 29.665,257.479 29.806 C 257.642 30.063,257.833 29.710,257.833 29.153 C 257.833 28.977,257.908 28.833,258.000 28.833 C 258.092 28.833,258.167 28.687,258.167 28.508 C 258.167 28.330,258.268 28.123,258.392 28.050 C 258.516 27.977,258.711 27.729,258.826 27.500 C 259.109 26.931,260.850 25.345,261.198 25.339 C 261.354 25.336,261.528 25.256,261.586 25.162 C 261.931 24.604,266.833 24.141,266.833 24.667 M29.000 39.990 C 29.000 41.248,28.931 42.190,28.833 42.250 C 28.742 42.307,28.667 42.495,28.667 42.668 C 28.667 42.841,28.479 43.185,28.250 43.432 C 28.021 43.680,27.833 43.952,27.833 44.037 C 27.833 44.250,26.983 45.078,26.625 45.213 C 26.465 45.273,26.333 45.400,26.333 45.495 C 26.333 45.589,26.221 45.667,26.083 45.667 C 25.946 45.667,25.833 45.742,25.833 45.833 C 25.833 45.925,25.652 46.000,25.431 46.000 C 25.209 46.000,25.003 46.056,24.972 46.125 C 24.813 46.484,23.727 46.833,22.770 46.833 C 22.200 46.833,21.651 46.915,21.551 47.015 C 21.420 47.147,21.275 47.147,21.029 47.015 C 20.842 46.915,20.271 46.833,19.761 46.833 C 19.251 46.833,18.833 46.760,18.833 46.670 C 18.833 46.580,18.646 46.459,18.417 46.402 C 18.188 46.344,18.000 46.230,18.000 46.149 C 18.000 46.067,17.813 46.000,17.583 46.000 C 17.354 46.000,17.167 45.933,17.167 45.851 C 17.167 45.769,16.980 45.525,16.753 45.309 C 16.525 45.093,16.338 44.785,16.336 44.625 C 16.335 44.465,16.258 44.333,16.167 44.333 C 16.068 44.333,16.000 43.722,16.000 42.833 C 16.000 41.944,16.068 41.333,16.167 41.333 C 16.258 41.333,16.336 41.240,16.338 41.125 C 16.344 40.864,17.269 39.833,17.498 39.833 C 17.591 39.833,17.667 39.775,17.667 39.705 C 17.667 39.634,17.948 39.438,18.292 39.269 C 18.635 39.101,19.040 38.901,19.191 38.824 C 19.342 38.748,19.905 38.670,20.441 38.652 C 20.978 38.633,21.529 38.562,21.667 38.492 C 21.804 38.423,23.328 38.331,25.053 38.289 C 27.069 38.239,28.256 38.144,28.378 38.022 C 28.903 37.497,29.000 37.805,29.000 39.990 " stroke="none" fill="#404040" fill-rule="evenodd"></path><path id="path2" d="M102.605 16.708 C 102.461 17.246,102.481 23.546,102.628 23.775 C 102.695 23.881,102.750 22.250,102.750 20.150 C 102.750 18.051,102.740 16.333,102.728 16.333 C 102.716 16.333,102.660 16.502,102.605 16.708 M256.568 19.000 C 256.568 20.512,256.593 21.131,256.624 20.375 C 256.655 19.619,256.655 18.381,256.624 17.625 C 256.593 16.869,256.568 17.487,256.568 19.000 M373.375 26.750 C 373.377 27.117,373.411 27.247,373.451 27.040 C 373.491 26.832,373.490 26.532,373.448 26.373 C 373.406 26.214,373.374 26.383,373.375 26.750 M102.875 35.250 C 102.877 35.617,102.911 35.747,102.951 35.540 C 102.991 35.332,102.990 35.032,102.948 34.873 C 102.906 34.714,102.874 34.883,102.875 35.250 M103.147 37.370 C 103.224 37.833,103.247 37.856,103.300 37.522 C 103.334 37.306,103.293 37.060,103.209 36.976 C 103.116 36.883,103.092 37.039,103.147 37.370 M102.404 50.250 C 102.404 52.175,102.428 52.940,102.458 51.949 C 102.487 50.959,102.487 49.384,102.458 48.449 C 102.428 47.515,102.404 48.325,102.404 50.250 M290.703 51.255 C 290.953 51.518,291.186 51.699,291.223 51.658 C 291.260 51.617,291.056 51.402,290.770 51.181 L 290.250 50.779 290.703 51.255 M374.000 54.968 C 374.000 55.058,374.119 55.177,374.264 55.232 C 374.426 55.295,374.502 55.257,374.462 55.136 C 374.379 54.886,374.000 54.749,374.000 54.968 " stroke="none" fill="#555555" fill-rule="evenodd"></path><path id="path3" d="M29.400 51.667 C 29.400 53.087,29.426 53.669,29.457 52.958 C 29.488 52.248,29.488 51.085,29.457 50.375 C 29.426 49.665,29.400 50.246,29.400 51.667 " stroke="none" fill="#808080" fill-rule="evenodd"></path><path id="path4" d="" stroke="none" fill="#ffffff" fill-rule="evenodd"></path></g></svg>