<?xml version="1.0" standalone="no"?>
<!DOCTYPE svg PUBLIC "-//W3C//DTD SVG 20010904//EN"
 "http://www.w3.org/TR/2001/REC-SVG-20010904/DTD/svg10.dtd">
<svg version="1.0" xmlns="http://www.w3.org/2000/svg"
 width="300.000000pt" height="300.000000pt" viewBox="0 0 300.000000 300.000000"
 preserveAspectRatio="xMidYMid meet">
<metadata>
Created by potrace 1.11, written by Peter Selinger 2001-2013
</metadata>
<g transform="translate(0.000000,300.000000) scale(0.100000,-0.100000)"
fill="#000000" stroke="none">
<path d="M395 2985 c-202 -50 -352 -210 -385 -408 -6 -40 -9 -438 -8 -1117 l3
-1055 22 -58 c58 -154 181 -274 329 -323 57 -18 101 -19 1144 -19 l1085 0 67
23 c68 24 159 81 205 130 45 47 99 137 119 198 18 57 19 101 19 1144 0 1043
-1 1087 -19 1144 -19 56 -72 148 -112 192 -65 72 -187 138 -284 153 -93 15
-2124 11 -2185 -4z"/>
</g>
</svg>
